%TF.GenerationSoftware,KiCad,Pcbnew,10.0.5*%
%TF.CreationDate,2026-08-25T01:29:56+10:00*%
%TF.ProjectId,V2,56322e6b-6963-4616-945f-706362585858,rev?*%
%TF.SameCoordinates,Original*%
%TF.FileFunction,Soldermask,Bot*%
%TF.FilePolarity,Negative*%
%FSLAX46Y46*%
G04 Gerber Fmt 4.6, Leading zero omitted, Abs format (unit mm)*
G04 Created by KiCad (PCBNEW 10.0.5) date 2026-08-25 01:29:56*
%MOMM*%
%LPD*%
G01*
G04 APERTURE LIST*
G04 Aperture macros list*
%AMRoundRect*
0 Rectangle with rounded corners*
0 $1 Rounding radius*
0 $2 $3 $4 $5 $6 $7 $8 $9 X,Y pos of 4 corners*
0 Add a 4 corners polygon primitive as box body*
4,1,4,$2,$3,$4,$5,$6,$7,$8,$9,$2,$3,0*
0 Add four circle primitives for the rounded corners*
1,1,$1+$1,$2,$3*
1,1,$1+$1,$4,$5*
1,1,$1+$1,$6,$7*
1,1,$1+$1,$8,$9*
0 Add four rect primitives between the rounded corners*
20,1,$1+$1,$2,$3,$4,$5,0*
20,1,$1+$1,$4,$5,$6,$7,0*
20,1,$1+$1,$6,$7,$8,$9,0*
20,1,$1+$1,$8,$9,$2,$3,0*%
G04 Aperture macros list end*
%ADD10C,3.600000*%
%ADD11RoundRect,0.250000X-1.025000X-1.000000X1.025000X-1.000000X1.025000X1.000000X-1.025000X1.000000X0*%
%ADD12C,1.750000*%
%ADD13C,4.000000*%
%ADD14R,1.200000X0.700000*%
%ADD15R,0.600000X1.524000*%
%ADD16C,1.200000*%
%ADD17R,1.150000X0.300000*%
%ADD18R,1.150000X0.600000*%
%ADD19O,2.100000X0.900000*%
%ADD20O,1.800000X0.900000*%
%ADD21C,0.650000*%
%ADD22C,1.900000*%
%ADD23C,2.500000*%
%ADD24C,6.400000*%
%ADD25RoundRect,0.225000X0.225000X0.375000X-0.225000X0.375000X-0.225000X-0.375000X0.225000X-0.375000X0*%
%ADD26RoundRect,0.225000X-0.250000X0.225000X-0.250000X-0.225000X0.250000X-0.225000X0.250000X0.225000X0*%
%ADD27RoundRect,0.225000X-0.225000X-0.250000X0.225000X-0.250000X0.225000X0.250000X-0.225000X0.250000X0*%
%ADD28RoundRect,0.225000X0.250000X-0.225000X0.250000X0.225000X-0.250000X0.225000X-0.250000X-0.225000X0*%
%ADD29RoundRect,0.225000X0.375000X-0.225000X0.375000X0.225000X-0.375000X0.225000X-0.375000X-0.225000X0*%
%ADD30R,1.000000X0.600000*%
%ADD31R,1.700000X1.700000*%
%ADD32C,1.700000*%
%ADD33R,1.000000X1.400000*%
%ADD34RoundRect,0.225000X0.225000X0.250000X-0.225000X0.250000X-0.225000X-0.250000X0.225000X-0.250000X0*%
%ADD35R,0.254000X0.812800*%
%ADD36R,1.549400X1.752600*%
%ADD37RoundRect,0.200000X0.275000X-0.200000X0.275000X0.200000X-0.275000X0.200000X-0.275000X-0.200000X0*%
%ADD38RoundRect,0.200000X-0.275000X0.200000X-0.275000X-0.200000X0.275000X-0.200000X0.275000X0.200000X0*%
%ADD39RoundRect,0.200000X0.200000X0.275000X-0.200000X0.275000X-0.200000X-0.275000X0.200000X-0.275000X0*%
%ADD40R,2.200000X1.700000*%
%ADD41R,1.400000X1.500000*%
%ADD42C,1.400000*%
%ADD43R,1.230000X1.860000*%
%ADD44R,1.600000X0.950000*%
%ADD45RoundRect,0.102000X-0.500000X1.000000X-0.500000X-1.000000X0.500000X-1.000000X0.500000X1.000000X0*%
%ADD46RoundRect,0.102000X-1.000000X0.500000X-1.000000X-0.500000X1.000000X-0.500000X1.000000X0.500000X0*%
%ADD47RoundRect,0.102000X-0.450000X0.450000X-0.450000X-0.450000X0.450000X-0.450000X0.450000X0.450000X0*%
%ADD48RoundRect,0.200000X-0.200000X-0.275000X0.200000X-0.275000X0.200000X0.275000X-0.200000X0.275000X0*%
%ADD49R,0.650000X1.000000*%
G04 APERTURE END LIST*
D10*
%TO.C,SW71*%
X288290000Y-33020000D03*
X281940000Y-35560000D03*
D11*
X291592000Y-33020000D03*
D12*
X290830000Y-38100000D03*
D13*
X285750000Y-38100000D03*
D12*
X280670000Y-38100000D03*
D11*
X278665000Y-35560000D03*
%TD*%
D14*
%TO.C,PWR_S1*%
X429100000Y-26796500D03*
X429100000Y-24496500D03*
X421900000Y-26796500D03*
X421900000Y-24496500D03*
D15*
X427750000Y-27896500D03*
X426250000Y-27896500D03*
X423250000Y-27896500D03*
D16*
X427000000Y-25646500D03*
X424000000Y-25646500D03*
%TD*%
D17*
%TO.C,U1*%
X450630000Y-69130000D03*
X450630000Y-70130000D03*
X450630000Y-71630000D03*
X450630000Y-72630000D03*
D18*
X450630000Y-73280000D03*
X450630000Y-74080000D03*
D17*
X450630000Y-72130000D03*
X450630000Y-71130000D03*
X450630000Y-70630000D03*
X450630000Y-69630000D03*
D18*
X450630000Y-68480000D03*
X450630000Y-67680000D03*
D19*
X451190000Y-75200000D03*
D20*
X455370000Y-75200000D03*
D19*
X451190000Y-66560000D03*
D20*
X455370000Y-66560000D03*
D21*
X451750000Y-73770000D03*
X451750000Y-67990000D03*
%TD*%
D22*
%TO.C,SW67*%
X447705000Y-42600000D03*
D23*
X447675000Y-38100000D03*
%TD*%
D11*
%TO.C,SW11*%
X221515000Y-35560000D03*
D12*
X223520000Y-38100000D03*
D13*
X228600000Y-38100000D03*
D12*
X233680000Y-38100000D03*
D11*
X234442000Y-33020000D03*
D10*
X224790000Y-35560000D03*
X231140000Y-33020000D03*
%TD*%
D11*
%TO.C,SW60*%
X223896250Y-130810000D03*
D12*
X225901250Y-133350000D03*
D13*
X230981250Y-133350000D03*
D12*
X236061250Y-133350000D03*
D11*
X236823250Y-128270000D03*
D10*
X227171250Y-130810000D03*
X233521250Y-128270000D03*
%TD*%
D11*
%TO.C,SW20*%
X183415000Y-54610000D03*
D12*
X185420000Y-57150000D03*
D13*
X190500000Y-57150000D03*
D12*
X195580000Y-57150000D03*
D11*
X196342000Y-52070000D03*
D10*
X186690000Y-54610000D03*
X193040000Y-52070000D03*
%TD*%
D11*
%TO.C,SW26*%
X97690000Y-73660000D03*
D12*
X99695000Y-76200000D03*
D13*
X104775000Y-76200000D03*
D12*
X109855000Y-76200000D03*
D11*
X110617000Y-71120000D03*
D10*
X100965000Y-73660000D03*
X107315000Y-71120000D03*
%TD*%
D11*
%TO.C,SW89*%
X250090000Y-73660000D03*
D12*
X252095000Y-76200000D03*
D13*
X257175000Y-76200000D03*
D12*
X262255000Y-76200000D03*
D11*
X263017000Y-71120000D03*
D10*
X253365000Y-73660000D03*
X259715000Y-71120000D03*
%TD*%
D11*
%TO.C,SW108*%
X421540000Y-111760000D03*
D12*
X423545000Y-114300000D03*
D13*
X428625000Y-114300000D03*
D12*
X433705000Y-114300000D03*
D11*
X434467000Y-109220000D03*
D10*
X424815000Y-111760000D03*
X431165000Y-109220000D03*
%TD*%
D11*
%TO.C,SW3*%
X69115000Y-35560000D03*
D12*
X71120000Y-38100000D03*
D13*
X76200000Y-38100000D03*
D12*
X81280000Y-38100000D03*
D11*
X82042000Y-33020000D03*
D10*
X72390000Y-35560000D03*
X78740000Y-33020000D03*
%TD*%
D11*
%TO.C,SW31*%
X192940000Y-73660000D03*
D12*
X194945000Y-76200000D03*
D13*
X200025000Y-76200000D03*
D12*
X205105000Y-76200000D03*
D11*
X205867000Y-71120000D03*
D10*
X196215000Y-73660000D03*
X202565000Y-71120000D03*
%TD*%
D11*
%TO.C,SW47*%
X92927500Y-111760000D03*
D12*
X94932500Y-114300000D03*
D13*
X100012500Y-114300000D03*
D12*
X105092500Y-114300000D03*
D11*
X105854500Y-109220000D03*
D10*
X96202500Y-111760000D03*
X102552500Y-109220000D03*
%TD*%
D11*
%TO.C,SW59*%
X152458750Y-130810000D03*
D12*
X154463750Y-133350000D03*
D13*
X159543750Y-133350000D03*
D12*
X164623750Y-133350000D03*
D11*
X165385750Y-128270000D03*
D10*
X155733750Y-130810000D03*
X162083750Y-128270000D03*
%TD*%
D11*
%TO.C,SW73*%
X321527500Y-35560000D03*
D12*
X323532500Y-38100000D03*
D13*
X328612500Y-38100000D03*
D12*
X333692500Y-38100000D03*
D11*
X334454500Y-33020000D03*
D10*
X324802500Y-35560000D03*
X331152500Y-33020000D03*
%TD*%
D11*
%TO.C,SW72*%
X297715000Y-35560000D03*
D12*
X299720000Y-38100000D03*
D13*
X304800000Y-38100000D03*
D12*
X309880000Y-38100000D03*
D11*
X310642000Y-33020000D03*
D10*
X300990000Y-35560000D03*
X307340000Y-33020000D03*
%TD*%
D24*
%TO.C,H9*%
X316800000Y-27600000D03*
%TD*%
D11*
%TO.C,SW75*%
X359627500Y-35560000D03*
D12*
X361632500Y-38100000D03*
D13*
X366712500Y-38100000D03*
D12*
X371792500Y-38100000D03*
D11*
X372554500Y-33020000D03*
D10*
X362902500Y-35560000D03*
X369252500Y-33020000D03*
%TD*%
D11*
%TO.C,SW64*%
X421540000Y-130810000D03*
D12*
X423545000Y-133350000D03*
D13*
X428625000Y-133350000D03*
D12*
X433705000Y-133350000D03*
D11*
X434467000Y-128270000D03*
D10*
X424815000Y-130810000D03*
X431165000Y-128270000D03*
%TD*%
D11*
%TO.C,SW39*%
X140552500Y-92710000D03*
D12*
X142557500Y-95250000D03*
D13*
X147637500Y-95250000D03*
D12*
X152717500Y-95250000D03*
D11*
X153479500Y-90170000D03*
D10*
X143827500Y-92710000D03*
X150177500Y-90170000D03*
%TD*%
D11*
%TO.C,SW110*%
X392965000Y-130810000D03*
D12*
X394970000Y-133350000D03*
D13*
X400050000Y-133350000D03*
D12*
X405130000Y-133350000D03*
D11*
X405892000Y-128270000D03*
D10*
X396240000Y-130810000D03*
X402590000Y-128270000D03*
%TD*%
D11*
%TO.C,SW35*%
X64352500Y-92710000D03*
D12*
X66357500Y-95250000D03*
D13*
X71437500Y-95250000D03*
D12*
X76517500Y-95250000D03*
D11*
X77279500Y-90170000D03*
D10*
X67627500Y-92710000D03*
X73977500Y-90170000D03*
%TD*%
D11*
%TO.C,SW99*%
X383440000Y-73660000D03*
D12*
X385445000Y-76200000D03*
D13*
X390525000Y-76200000D03*
D12*
X395605000Y-76200000D03*
D11*
X396367000Y-71120000D03*
D10*
X386715000Y-73660000D03*
X393065000Y-71120000D03*
%TD*%
D11*
%TO.C,SW104*%
X340577500Y-111760000D03*
D12*
X342582500Y-114300000D03*
D13*
X347662500Y-114300000D03*
D12*
X352742500Y-114300000D03*
D11*
X353504500Y-109220000D03*
D10*
X343852500Y-111760000D03*
X350202500Y-109220000D03*
%TD*%
D11*
%TO.C,SW97*%
X421540000Y-73660000D03*
D12*
X423545000Y-76200000D03*
D13*
X428625000Y-76200000D03*
D12*
X433705000Y-76200000D03*
D11*
X434467000Y-71120000D03*
D10*
X424815000Y-73660000D03*
X431165000Y-71120000D03*
%TD*%
D24*
%TO.C,H6*%
X315600000Y-138000000D03*
%TD*%
%TO.C,H8*%
X128600000Y-125000000D03*
%TD*%
D11*
%TO.C,SW76*%
X421540000Y-35560000D03*
D12*
X423545000Y-38100000D03*
D13*
X428625000Y-38100000D03*
D12*
X433705000Y-38100000D03*
D11*
X434467000Y-33020000D03*
D10*
X424815000Y-35560000D03*
X431165000Y-33020000D03*
%TD*%
D11*
%TO.C,SW36*%
X83402500Y-92710000D03*
D12*
X85407500Y-95250000D03*
D13*
X90487500Y-95250000D03*
D12*
X95567500Y-95250000D03*
D11*
X96329500Y-90170000D03*
D10*
X86677500Y-92710000D03*
X93027500Y-90170000D03*
%TD*%
D24*
%TO.C,H12*%
X278000000Y-62000000D03*
%TD*%
D11*
%TO.C,SW81*%
X321527500Y-54610000D03*
D12*
X323532500Y-57150000D03*
D13*
X328612500Y-57150000D03*
D12*
X333692500Y-57150000D03*
D11*
X334454500Y-52070000D03*
D10*
X324802500Y-54610000D03*
X331152500Y-52070000D03*
%TD*%
D11*
%TO.C,SW42*%
X197702500Y-92710000D03*
D12*
X199707500Y-95250000D03*
D13*
X204787500Y-95250000D03*
D12*
X209867500Y-95250000D03*
D11*
X210629500Y-90170000D03*
D10*
X200977500Y-92710000D03*
X207327500Y-90170000D03*
%TD*%
D11*
%TO.C,SW70*%
X259615000Y-35560000D03*
D12*
X261620000Y-38100000D03*
D13*
X266700000Y-38100000D03*
D12*
X271780000Y-38100000D03*
D11*
X272542000Y-33020000D03*
D10*
X262890000Y-35560000D03*
X269240000Y-33020000D03*
%TD*%
D11*
%TO.C,SW77*%
X383440000Y-35560000D03*
D12*
X385445000Y-38100000D03*
D13*
X390525000Y-38100000D03*
D12*
X395605000Y-38100000D03*
D11*
X396367000Y-33020000D03*
D10*
X386715000Y-35560000D03*
X393065000Y-33020000D03*
%TD*%
D11*
%TO.C,SW56*%
X33396250Y-130810000D03*
D12*
X35401250Y-133350000D03*
D13*
X40481250Y-133350000D03*
D12*
X45561250Y-133350000D03*
D11*
X46323250Y-128270000D03*
D10*
X36671250Y-130810000D03*
X43021250Y-128270000D03*
%TD*%
D11*
%TO.C,SW90*%
X269140000Y-73660000D03*
D12*
X271145000Y-76200000D03*
D13*
X276225000Y-76200000D03*
D12*
X281305000Y-76200000D03*
D11*
X282067000Y-71120000D03*
D10*
X272415000Y-73660000D03*
X278765000Y-71120000D03*
%TD*%
D11*
%TO.C,SW44*%
X235802500Y-92710000D03*
D12*
X237807500Y-95250000D03*
D13*
X242887500Y-95250000D03*
D12*
X247967500Y-95250000D03*
D11*
X248729500Y-90170000D03*
D10*
X239077500Y-92710000D03*
X245427500Y-90170000D03*
%TD*%
D11*
%TO.C,SW2*%
X50065000Y-35560000D03*
D12*
X52070000Y-38100000D03*
D13*
X57150000Y-38100000D03*
D12*
X62230000Y-38100000D03*
D11*
X62992000Y-33020000D03*
D10*
X53340000Y-35560000D03*
X59690000Y-33020000D03*
%TD*%
D11*
%TO.C,SW65*%
X402490000Y-111760000D03*
D12*
X404495000Y-114300000D03*
D13*
X409575000Y-114300000D03*
D12*
X414655000Y-114300000D03*
D11*
X415417000Y-109220000D03*
D10*
X405765000Y-111760000D03*
X412115000Y-109220000D03*
%TD*%
D11*
%TO.C,SW16*%
X107215000Y-54610000D03*
D12*
X109220000Y-57150000D03*
D13*
X114300000Y-57150000D03*
D12*
X119380000Y-57150000D03*
D11*
X120142000Y-52070000D03*
D10*
X110490000Y-54610000D03*
X116840000Y-52070000D03*
%TD*%
D11*
%TO.C,SW33*%
X231040000Y-73660000D03*
D12*
X233045000Y-76200000D03*
D13*
X238125000Y-76200000D03*
D12*
X243205000Y-76200000D03*
D11*
X243967000Y-71120000D03*
D10*
X234315000Y-73660000D03*
X240665000Y-71120000D03*
%TD*%
D11*
%TO.C,SW50*%
X150077500Y-111760000D03*
D12*
X152082500Y-114300000D03*
D13*
X157162500Y-114300000D03*
D12*
X162242500Y-114300000D03*
D11*
X163004500Y-109220000D03*
D10*
X153352500Y-111760000D03*
X159702500Y-109220000D03*
%TD*%
D11*
%TO.C,SW51*%
X169127500Y-111760000D03*
D12*
X171132500Y-114300000D03*
D13*
X176212500Y-114300000D03*
D12*
X181292500Y-114300000D03*
D11*
X182054500Y-109220000D03*
D10*
X172402500Y-111760000D03*
X178752500Y-109220000D03*
%TD*%
D11*
%TO.C,SW58*%
X81021250Y-130810000D03*
D12*
X83026250Y-133350000D03*
D13*
X88106250Y-133350000D03*
D12*
X93186250Y-133350000D03*
D11*
X93948250Y-128270000D03*
D10*
X84296250Y-130810000D03*
X90646250Y-128270000D03*
%TD*%
D11*
%TO.C,SW32*%
X211990000Y-73660000D03*
D12*
X213995000Y-76200000D03*
D13*
X219075000Y-76200000D03*
D12*
X224155000Y-76200000D03*
D11*
X224917000Y-71120000D03*
D10*
X215265000Y-73660000D03*
X221615000Y-71120000D03*
%TD*%
D11*
%TO.C,SW25*%
X78640000Y-73660000D03*
D12*
X80645000Y-76200000D03*
D13*
X85725000Y-76200000D03*
D12*
X90805000Y-76200000D03*
D11*
X91567000Y-71120000D03*
D10*
X81915000Y-73660000D03*
X88265000Y-71120000D03*
%TD*%
D11*
%TO.C,SW5*%
X107215000Y-35560000D03*
D12*
X109220000Y-38100000D03*
D13*
X114300000Y-38100000D03*
D12*
X119380000Y-38100000D03*
D11*
X120142000Y-33020000D03*
D10*
X110490000Y-35560000D03*
X116840000Y-33020000D03*
%TD*%
D11*
%TO.C,SW17*%
X126265000Y-54610000D03*
D12*
X128270000Y-57150000D03*
D13*
X133350000Y-57150000D03*
D12*
X138430000Y-57150000D03*
D11*
X139192000Y-52070000D03*
D10*
X129540000Y-54610000D03*
X135890000Y-52070000D03*
%TD*%
D24*
%TO.C,H5*%
X52400000Y-138000000D03*
%TD*%
D11*
%TO.C,SW49*%
X131027500Y-111760000D03*
D12*
X133032500Y-114300000D03*
D13*
X138112500Y-114300000D03*
D12*
X143192500Y-114300000D03*
D11*
X143954500Y-109220000D03*
D10*
X134302500Y-111760000D03*
X140652500Y-109220000D03*
%TD*%
D24*
%TO.C,H1*%
X446000000Y-138000000D03*
%TD*%
D11*
%TO.C,SW15*%
X88165000Y-54610000D03*
D12*
X90170000Y-57150000D03*
D13*
X95250000Y-57150000D03*
D12*
X100330000Y-57150000D03*
D11*
X101092000Y-52070000D03*
D10*
X91440000Y-54610000D03*
X97790000Y-52070000D03*
%TD*%
D11*
%TO.C,SW103*%
X321527500Y-130810000D03*
D12*
X323532500Y-133350000D03*
D13*
X328612500Y-133350000D03*
D12*
X333692500Y-133350000D03*
D11*
X334454500Y-128270000D03*
D10*
X324802500Y-130810000D03*
X331152500Y-128270000D03*
%TD*%
D11*
%TO.C,SW95*%
X383440000Y-92710000D03*
D12*
X385445000Y-95250000D03*
D13*
X390525000Y-95250000D03*
D12*
X395605000Y-95250000D03*
D11*
X396367000Y-90170000D03*
D10*
X386715000Y-92710000D03*
X393065000Y-90170000D03*
%TD*%
D11*
%TO.C,SW92*%
X321527500Y-73660000D03*
D12*
X323532500Y-76200000D03*
D13*
X328612500Y-76200000D03*
D12*
X333692500Y-76200000D03*
D11*
X334454500Y-71120000D03*
D10*
X324802500Y-73660000D03*
X331152500Y-71120000D03*
%TD*%
D11*
%TO.C,SW93*%
X340577500Y-73660000D03*
D12*
X342582500Y-76200000D03*
D13*
X347662500Y-76200000D03*
D12*
X352742500Y-76200000D03*
D11*
X353504500Y-71120000D03*
D10*
X343852500Y-73660000D03*
X350202500Y-71120000D03*
%TD*%
D11*
%TO.C,SW101*%
X285808750Y-92710000D03*
D12*
X287813750Y-95250000D03*
D13*
X292893750Y-95250000D03*
D12*
X297973750Y-95250000D03*
D11*
X298735750Y-90170000D03*
D10*
X289083750Y-92710000D03*
X295433750Y-90170000D03*
%TD*%
D11*
%TO.C,SW10*%
X202465000Y-35560000D03*
D12*
X204470000Y-38100000D03*
D13*
X209550000Y-38100000D03*
D12*
X214630000Y-38100000D03*
D11*
X215392000Y-33020000D03*
D10*
X205740000Y-35560000D03*
X212090000Y-33020000D03*
%TD*%
D11*
%TO.C,SW46*%
X73877500Y-111760000D03*
D12*
X75882500Y-114300000D03*
D13*
X80962500Y-114300000D03*
D12*
X86042500Y-114300000D03*
D11*
X86804500Y-109220000D03*
D10*
X77152500Y-111760000D03*
X83502500Y-109220000D03*
%TD*%
D11*
%TO.C,SW80*%
X288190000Y-54610000D03*
D12*
X290195000Y-57150000D03*
D13*
X295275000Y-57150000D03*
D12*
X300355000Y-57150000D03*
D11*
X301117000Y-52070000D03*
D10*
X291465000Y-54610000D03*
X297815000Y-52070000D03*
%TD*%
D11*
%TO.C,SW78*%
X240565000Y-54610000D03*
D12*
X242570000Y-57150000D03*
D13*
X247650000Y-57150000D03*
D12*
X252730000Y-57150000D03*
D11*
X253492000Y-52070000D03*
D10*
X243840000Y-54610000D03*
X250190000Y-52070000D03*
%TD*%
D11*
%TO.C,SW106*%
X383440000Y-111760000D03*
D12*
X385445000Y-114300000D03*
D13*
X390525000Y-114300000D03*
D12*
X395605000Y-114300000D03*
D11*
X396367000Y-109220000D03*
D10*
X386715000Y-111760000D03*
X393065000Y-109220000D03*
%TD*%
D11*
%TO.C,SW82*%
X340577500Y-54610000D03*
D12*
X342582500Y-57150000D03*
D13*
X347662500Y-57150000D03*
D12*
X352742500Y-57150000D03*
D11*
X353504500Y-52070000D03*
D10*
X343852500Y-54610000D03*
X350202500Y-52070000D03*
%TD*%
D11*
%TO.C,SW102*%
X281046250Y-111760000D03*
D12*
X283051250Y-114300000D03*
D13*
X288131250Y-114300000D03*
D12*
X293211250Y-114300000D03*
D11*
X293973250Y-109220000D03*
D10*
X284321250Y-111760000D03*
X290671250Y-109220000D03*
%TD*%
D11*
%TO.C,SW18*%
X145315000Y-54610000D03*
D12*
X147320000Y-57150000D03*
D13*
X152400000Y-57150000D03*
D12*
X157480000Y-57150000D03*
D11*
X158242000Y-52070000D03*
D10*
X148590000Y-54610000D03*
X154940000Y-52070000D03*
%TD*%
D11*
%TO.C,SW94*%
X359627500Y-73660000D03*
D12*
X361632500Y-76200000D03*
D13*
X366712500Y-76200000D03*
D12*
X371792500Y-76200000D03*
D11*
X372554500Y-71120000D03*
D10*
X362902500Y-73660000D03*
X369252500Y-71120000D03*
%TD*%
D11*
%TO.C,SW6*%
X126265000Y-35560000D03*
D12*
X128270000Y-38100000D03*
D13*
X133350000Y-38100000D03*
D12*
X138430000Y-38100000D03*
D11*
X139192000Y-33020000D03*
D10*
X129540000Y-35560000D03*
X135890000Y-33020000D03*
%TD*%
D11*
%TO.C,SW24*%
X59590000Y-73660000D03*
D12*
X61595000Y-76200000D03*
D13*
X66675000Y-76200000D03*
D12*
X71755000Y-76200000D03*
D11*
X72517000Y-71120000D03*
D10*
X62865000Y-73660000D03*
X69215000Y-71120000D03*
%TD*%
D11*
%TO.C,SW69*%
X240565000Y-35560000D03*
D12*
X242570000Y-38100000D03*
D13*
X247650000Y-38100000D03*
D12*
X252730000Y-38100000D03*
D11*
X253492000Y-33020000D03*
D10*
X243840000Y-35560000D03*
X250190000Y-33020000D03*
%TD*%
D11*
%TO.C,SW54*%
X226277500Y-111760000D03*
D12*
X228282500Y-114300000D03*
D13*
X233362500Y-114300000D03*
D12*
X238442500Y-114300000D03*
D11*
X239204500Y-109220000D03*
D10*
X229552500Y-111760000D03*
X235902500Y-109220000D03*
%TD*%
D11*
%TO.C,SW83*%
X359627500Y-54610000D03*
D12*
X361632500Y-57150000D03*
D13*
X366712500Y-57150000D03*
D12*
X371792500Y-57150000D03*
D11*
X372554500Y-52070000D03*
D10*
X362902500Y-54610000D03*
X369252500Y-52070000D03*
%TD*%
D11*
%TO.C,SW63*%
X295333750Y-130810000D03*
D12*
X297338750Y-133350000D03*
D13*
X302418750Y-133350000D03*
D12*
X307498750Y-133350000D03*
D11*
X308260750Y-128270000D03*
D10*
X298608750Y-130810000D03*
X304958750Y-128270000D03*
%TD*%
D11*
%TO.C,SW13*%
X50065000Y-54610000D03*
D12*
X52070000Y-57150000D03*
D13*
X57150000Y-57150000D03*
D12*
X62230000Y-57150000D03*
D11*
X62992000Y-52070000D03*
D10*
X53340000Y-54610000D03*
X59690000Y-52070000D03*
%TD*%
D11*
%TO.C,SW86*%
X421540000Y-54610000D03*
D12*
X423545000Y-57150000D03*
D13*
X428625000Y-57150000D03*
D12*
X433705000Y-57150000D03*
D11*
X434467000Y-52070000D03*
D10*
X424815000Y-54610000D03*
X431165000Y-52070000D03*
%TD*%
D11*
%TO.C,SW98*%
X402490000Y-73660000D03*
D12*
X404495000Y-76200000D03*
D13*
X409575000Y-76200000D03*
D12*
X414655000Y-76200000D03*
D11*
X415417000Y-71120000D03*
D10*
X405765000Y-73660000D03*
X412115000Y-71120000D03*
%TD*%
D11*
%TO.C,SW1*%
X31015000Y-35560000D03*
D12*
X33020000Y-38100000D03*
D13*
X38100000Y-38100000D03*
D12*
X43180000Y-38100000D03*
D11*
X43942000Y-33020000D03*
D10*
X34290000Y-35560000D03*
X40640000Y-33020000D03*
%TD*%
D11*
%TO.C,SW21*%
X202465000Y-54610000D03*
D12*
X204470000Y-57150000D03*
D13*
X209550000Y-57150000D03*
D12*
X214630000Y-57150000D03*
D11*
X215392000Y-52070000D03*
D10*
X205740000Y-54610000D03*
X212090000Y-52070000D03*
%TD*%
D11*
%TO.C,SW23*%
X35777500Y-73660000D03*
D12*
X37782500Y-76200000D03*
D13*
X42862500Y-76200000D03*
D12*
X47942500Y-76200000D03*
D11*
X48704500Y-71120000D03*
D10*
X39052500Y-73660000D03*
X45402500Y-71120000D03*
%TD*%
D11*
%TO.C,SW7*%
X145315000Y-35560000D03*
D12*
X147320000Y-38100000D03*
D13*
X152400000Y-38100000D03*
D12*
X157480000Y-38100000D03*
D11*
X158242000Y-33020000D03*
D10*
X148590000Y-35560000D03*
X154940000Y-33020000D03*
%TD*%
D11*
%TO.C,SW91*%
X292952500Y-73660000D03*
D12*
X294957500Y-76200000D03*
D13*
X300037500Y-76200000D03*
D12*
X305117500Y-76200000D03*
D11*
X305879500Y-71120000D03*
D10*
X296227500Y-73660000D03*
X302577500Y-71120000D03*
%TD*%
D11*
%TO.C,SW61*%
X247708750Y-130810000D03*
D12*
X249713750Y-133350000D03*
D13*
X254793750Y-133350000D03*
D12*
X259873750Y-133350000D03*
D11*
X260635750Y-128270000D03*
D10*
X250983750Y-130810000D03*
X257333750Y-128270000D03*
%TD*%
D24*
%TO.C,H7*%
X218600000Y-126800000D03*
%TD*%
D11*
%TO.C,SW12*%
X31015000Y-54610000D03*
D12*
X33020000Y-57150000D03*
D13*
X38100000Y-57150000D03*
D12*
X43180000Y-57150000D03*
D11*
X43942000Y-52070000D03*
D10*
X34290000Y-54610000D03*
X40640000Y-52070000D03*
%TD*%
D11*
%TO.C,SW52*%
X188177500Y-111760000D03*
D12*
X190182500Y-114300000D03*
D13*
X195262500Y-114300000D03*
D12*
X200342500Y-114300000D03*
D11*
X201104500Y-109220000D03*
D10*
X191452500Y-111760000D03*
X197802500Y-109220000D03*
%TD*%
D11*
%TO.C,SW43*%
X216752500Y-92710000D03*
D12*
X218757500Y-95250000D03*
D13*
X223837500Y-95250000D03*
D12*
X228917500Y-95250000D03*
D11*
X229679500Y-90170000D03*
D10*
X220027500Y-92710000D03*
X226377500Y-90170000D03*
%TD*%
D24*
%TO.C,H10*%
X181000000Y-27600000D03*
%TD*%
D11*
%TO.C,SW74*%
X340577500Y-35560000D03*
D12*
X342582500Y-38100000D03*
D13*
X347662500Y-38100000D03*
D12*
X352742500Y-38100000D03*
D11*
X353504500Y-33020000D03*
D10*
X343852500Y-35560000D03*
X350202500Y-33020000D03*
%TD*%
D24*
%TO.C,H11*%
X452600000Y-97200000D03*
%TD*%
D11*
%TO.C,SW29*%
X154840000Y-73660000D03*
D12*
X156845000Y-76200000D03*
D13*
X161925000Y-76200000D03*
D12*
X167005000Y-76200000D03*
D11*
X167767000Y-71120000D03*
D10*
X158115000Y-73660000D03*
X164465000Y-71120000D03*
%TD*%
D11*
%TO.C,SW34*%
X38158750Y-92710000D03*
D12*
X40163750Y-95250000D03*
D13*
X45243750Y-95250000D03*
D12*
X50323750Y-95250000D03*
D11*
X51085750Y-90170000D03*
D10*
X41433750Y-92710000D03*
X47783750Y-90170000D03*
%TD*%
D11*
%TO.C,SW40*%
X159602500Y-92710000D03*
D12*
X161607500Y-95250000D03*
D13*
X166687500Y-95250000D03*
D12*
X171767500Y-95250000D03*
D11*
X172529500Y-90170000D03*
D10*
X162877500Y-92710000D03*
X169227500Y-90170000D03*
%TD*%
D11*
%TO.C,SW4*%
X88165000Y-35560000D03*
D12*
X90170000Y-38100000D03*
D13*
X95250000Y-38100000D03*
D12*
X100330000Y-38100000D03*
D11*
X101092000Y-33020000D03*
D10*
X91440000Y-35560000D03*
X97790000Y-33020000D03*
%TD*%
D11*
%TO.C,SW55*%
X245327500Y-111760000D03*
D12*
X247332500Y-114300000D03*
D13*
X252412500Y-114300000D03*
D12*
X257492500Y-114300000D03*
D11*
X258254500Y-109220000D03*
D10*
X248602500Y-111760000D03*
X254952500Y-109220000D03*
%TD*%
D11*
%TO.C,SW79*%
X259615000Y-54610000D03*
D12*
X261620000Y-57150000D03*
D13*
X266700000Y-57150000D03*
D12*
X271780000Y-57150000D03*
D11*
X272542000Y-52070000D03*
D10*
X262890000Y-54610000D03*
X269240000Y-52070000D03*
%TD*%
D24*
%TO.C,H13*%
X266000000Y-107000000D03*
%TD*%
D11*
%TO.C,SW57*%
X57208750Y-130810000D03*
D12*
X59213750Y-133350000D03*
D13*
X64293750Y-133350000D03*
D12*
X69373750Y-133350000D03*
D11*
X70135750Y-128270000D03*
D10*
X60483750Y-130810000D03*
X66833750Y-128270000D03*
%TD*%
D11*
%TO.C,SW9*%
X183415000Y-35560000D03*
D12*
X185420000Y-38100000D03*
D13*
X190500000Y-38100000D03*
D12*
X195580000Y-38100000D03*
D11*
X196342000Y-33020000D03*
D10*
X186690000Y-35560000D03*
X193040000Y-33020000D03*
%TD*%
D11*
%TO.C,SW38*%
X121502500Y-92710000D03*
D12*
X123507500Y-95250000D03*
D13*
X128587500Y-95250000D03*
D12*
X133667500Y-95250000D03*
D11*
X134429500Y-90170000D03*
D10*
X124777500Y-92710000D03*
X131127500Y-90170000D03*
%TD*%
D11*
%TO.C,SW107*%
X440590000Y-121285000D03*
D12*
X442595000Y-123825000D03*
D13*
X447675000Y-123825000D03*
D12*
X452755000Y-123825000D03*
D11*
X453517000Y-118745000D03*
D10*
X443865000Y-121285000D03*
X450215000Y-118745000D03*
%TD*%
D11*
%TO.C,SW41*%
X178652500Y-92710000D03*
D12*
X180657500Y-95250000D03*
D13*
X185737500Y-95250000D03*
D12*
X190817500Y-95250000D03*
D11*
X191579500Y-90170000D03*
D10*
X181927500Y-92710000D03*
X188277500Y-90170000D03*
%TD*%
D11*
%TO.C,SW22*%
X221515000Y-54610000D03*
D12*
X223520000Y-57150000D03*
D13*
X228600000Y-57150000D03*
D12*
X233680000Y-57150000D03*
D11*
X234442000Y-52070000D03*
D10*
X224790000Y-54610000D03*
X231140000Y-52070000D03*
%TD*%
D24*
%TO.C,H4*%
X47600000Y-27600000D03*
%TD*%
D11*
%TO.C,SW100*%
X254852500Y-92710000D03*
D12*
X256857500Y-95250000D03*
D13*
X261937500Y-95250000D03*
D12*
X267017500Y-95250000D03*
D11*
X267779500Y-90170000D03*
D10*
X258127500Y-92710000D03*
X264477500Y-90170000D03*
%TD*%
D11*
%TO.C,SW8*%
X164365000Y-35560000D03*
D12*
X166370000Y-38100000D03*
D13*
X171450000Y-38100000D03*
D12*
X176530000Y-38100000D03*
D11*
X177292000Y-33020000D03*
D10*
X167640000Y-35560000D03*
X173990000Y-33020000D03*
%TD*%
D11*
%TO.C,SW68*%
X402490000Y-35560000D03*
D12*
X404495000Y-38100000D03*
D13*
X409575000Y-38100000D03*
D12*
X414655000Y-38100000D03*
D11*
X415417000Y-33020000D03*
D10*
X405765000Y-35560000D03*
X412115000Y-33020000D03*
%TD*%
D11*
%TO.C,SW27*%
X116740000Y-73660000D03*
D12*
X118745000Y-76200000D03*
D13*
X123825000Y-76200000D03*
D12*
X128905000Y-76200000D03*
D11*
X129667000Y-71120000D03*
D10*
X120015000Y-73660000D03*
X126365000Y-71120000D03*
%TD*%
D24*
%TO.C,H3*%
X32000000Y-87000000D03*
%TD*%
D11*
%TO.C,SW53*%
X207227500Y-111760000D03*
D12*
X209232500Y-114300000D03*
D13*
X214312500Y-114300000D03*
D12*
X219392500Y-114300000D03*
D11*
X220154500Y-109220000D03*
D10*
X210502500Y-111760000D03*
X216852500Y-109220000D03*
%TD*%
D11*
%TO.C,SW30*%
X173890000Y-73660000D03*
D12*
X175895000Y-76200000D03*
D13*
X180975000Y-76200000D03*
D12*
X186055000Y-76200000D03*
D11*
X186817000Y-71120000D03*
D10*
X177165000Y-73660000D03*
X183515000Y-71120000D03*
%TD*%
D11*
%TO.C,SW85*%
X440390001Y-54610000D03*
D12*
X442395001Y-57150000D03*
D13*
X447475001Y-57150000D03*
D12*
X452555001Y-57150000D03*
D11*
X453317001Y-52070000D03*
D10*
X443665001Y-54610000D03*
X450015001Y-52070000D03*
%TD*%
D11*
%TO.C,SW28*%
X135790000Y-73660000D03*
D12*
X137795000Y-76200000D03*
D13*
X142875000Y-76200000D03*
D12*
X147955000Y-76200000D03*
D11*
X148717000Y-71120000D03*
D10*
X139065000Y-73660000D03*
X145415000Y-71120000D03*
%TD*%
D11*
%TO.C,SW105*%
X340577500Y-130810000D03*
D12*
X342582500Y-133350000D03*
D13*
X347662500Y-133350000D03*
D12*
X352742500Y-133350000D03*
D11*
X353504500Y-128270000D03*
D10*
X343852500Y-130810000D03*
X350202500Y-128270000D03*
%TD*%
D11*
%TO.C,SW109*%
X402490000Y-92710000D03*
D12*
X404495000Y-95250000D03*
D13*
X409575000Y-95250000D03*
D12*
X414655000Y-95250000D03*
D11*
X415417000Y-90170000D03*
D10*
X405765000Y-92710000D03*
X412115000Y-90170000D03*
%TD*%
D11*
%TO.C,SW62*%
X271521250Y-130810000D03*
D12*
X273526250Y-133350000D03*
D13*
X278606250Y-133350000D03*
D12*
X283686250Y-133350000D03*
D11*
X284448250Y-128270000D03*
D10*
X274796250Y-130810000D03*
X281146250Y-128270000D03*
%TD*%
D11*
%TO.C,SW19*%
X164365000Y-54610000D03*
D12*
X166370000Y-57150000D03*
D13*
X171450000Y-57150000D03*
D12*
X176530000Y-57150000D03*
D11*
X177292000Y-52070000D03*
D10*
X167640000Y-54610000D03*
X173990000Y-52070000D03*
%TD*%
D11*
%TO.C,SW88*%
X383440000Y-54610000D03*
D12*
X385445000Y-57150000D03*
D13*
X390525000Y-57150000D03*
D12*
X395605000Y-57150000D03*
D11*
X396367000Y-52070000D03*
D10*
X386715000Y-54610000D03*
X393065000Y-52070000D03*
%TD*%
D11*
%TO.C,SW87*%
X402490000Y-54610000D03*
D12*
X404495000Y-57150000D03*
D13*
X409575000Y-57150000D03*
D12*
X414655000Y-57150000D03*
D11*
X415417000Y-52070000D03*
D10*
X405765000Y-54610000D03*
X412115000Y-52070000D03*
%TD*%
D11*
%TO.C,SW45*%
X42921250Y-111760000D03*
D12*
X44926250Y-114300000D03*
D13*
X50006250Y-114300000D03*
D12*
X55086250Y-114300000D03*
D11*
X55848250Y-109220000D03*
D10*
X46196250Y-111760000D03*
X52546250Y-109220000D03*
%TD*%
D11*
%TO.C,SW84*%
X421540000Y-92710000D03*
D12*
X423545000Y-95250000D03*
D13*
X428625000Y-95250000D03*
D12*
X433705000Y-95250000D03*
D11*
X434467000Y-90170000D03*
D10*
X424815000Y-92710000D03*
X431165000Y-90170000D03*
%TD*%
D24*
%TO.C,H2*%
X437800000Y-27600000D03*
%TD*%
D11*
%TO.C,SW48*%
X111977500Y-111760000D03*
D12*
X113982500Y-114300000D03*
D13*
X119062500Y-114300000D03*
D12*
X124142500Y-114300000D03*
D11*
X124904500Y-109220000D03*
D10*
X115252500Y-111760000D03*
X121602500Y-109220000D03*
%TD*%
D11*
%TO.C,SW66*%
X359627500Y-130810000D03*
D12*
X361632500Y-133350000D03*
D13*
X366712500Y-133350000D03*
D12*
X371792500Y-133350000D03*
D11*
X372554500Y-128270000D03*
D10*
X362902500Y-130810000D03*
X369252500Y-128270000D03*
%TD*%
D11*
%TO.C,SW96*%
X440590000Y-83185000D03*
D12*
X442595000Y-85725000D03*
D13*
X447675000Y-85725000D03*
D12*
X452755000Y-85725000D03*
D11*
X453517000Y-80645000D03*
D10*
X443865000Y-83185000D03*
X450215000Y-80645000D03*
%TD*%
D11*
%TO.C,SW37*%
X102452500Y-92710000D03*
D12*
X104457500Y-95250000D03*
D13*
X109537500Y-95250000D03*
D12*
X114617500Y-95250000D03*
D11*
X115379500Y-90170000D03*
D10*
X105727500Y-92710000D03*
X112077500Y-90170000D03*
%TD*%
D11*
%TO.C,SW14*%
X69115000Y-54610000D03*
D12*
X71120000Y-57150000D03*
D13*
X76200000Y-57150000D03*
D12*
X81280000Y-57150000D03*
D11*
X82042000Y-52070000D03*
D10*
X72390000Y-54610000D03*
X78740000Y-52070000D03*
%TD*%
D25*
%TO.C,D106*%
X400200000Y-106100001D03*
X396900000Y-106100001D03*
%TD*%
%TO.C,D24*%
X75295000Y-68000001D03*
X71995000Y-68000001D03*
%TD*%
%TO.C,D26*%
X113395000Y-68000001D03*
X110095000Y-68000001D03*
%TD*%
D26*
%TO.C,C11*%
X445200000Y-47750000D03*
X445200000Y-49300000D03*
%TD*%
D25*
%TO.C,D47*%
X108632500Y-106100001D03*
X105332500Y-106100001D03*
%TD*%
%TO.C,D69*%
X256270000Y-29900001D03*
X252970000Y-29900001D03*
%TD*%
%TO.C,D78*%
X256270000Y-48950001D03*
X252970000Y-48950001D03*
%TD*%
%TO.C,D52*%
X203882500Y-106100001D03*
X200582500Y-106100001D03*
%TD*%
%TO.C,D70*%
X275320000Y-29900001D03*
X272020000Y-29900001D03*
%TD*%
D27*
%TO.C,C6*%
X336600000Y-103180000D03*
X338150000Y-103180000D03*
%TD*%
D25*
%TO.C,D58*%
X96726250Y-125150001D03*
X93426250Y-125150001D03*
%TD*%
%TO.C,D77*%
X399145000Y-29900001D03*
X395845000Y-29900001D03*
%TD*%
%TO.C,D61*%
X263413750Y-125150001D03*
X260113750Y-125150001D03*
%TD*%
D28*
%TO.C,C2*%
X443780000Y-45200000D03*
X443780000Y-43650000D03*
%TD*%
D25*
%TO.C,D57*%
X72913750Y-125150001D03*
X69613750Y-125150001D03*
%TD*%
%TO.C,D18*%
X161020000Y-48950001D03*
X157720000Y-48950001D03*
%TD*%
%TO.C,D38*%
X137207500Y-87050001D03*
X133907500Y-87050001D03*
%TD*%
D29*
%TO.C,D72*%
X313600000Y-36320000D03*
X313600000Y-33020000D03*
%TD*%
D25*
%TO.C,D22*%
X237220000Y-48950001D03*
X233920000Y-48950001D03*
%TD*%
%TO.C,D89*%
X265795000Y-68000001D03*
X262495000Y-68000001D03*
%TD*%
%TO.C,D88*%
X399145000Y-48950001D03*
X395845000Y-48950001D03*
%TD*%
%TO.C,D9*%
X199120000Y-29900001D03*
X195820000Y-29900001D03*
%TD*%
%TO.C,D50*%
X165782500Y-106100001D03*
X162482500Y-106100001D03*
%TD*%
%TO.C,D96*%
X456570000Y-77525000D03*
X453270000Y-77525000D03*
%TD*%
%TO.C,D92*%
X337232500Y-68000001D03*
X333932500Y-68000001D03*
%TD*%
%TO.C,D44*%
X251507500Y-87050001D03*
X248207500Y-87050001D03*
%TD*%
%TO.C,D13*%
X65770000Y-48950001D03*
X62470000Y-48950001D03*
%TD*%
%TO.C,D86*%
X437245000Y-48950001D03*
X433945000Y-48950001D03*
%TD*%
%TO.C,D93*%
X356282500Y-68000001D03*
X352982500Y-68000001D03*
%TD*%
%TO.C,D3*%
X84820000Y-29900001D03*
X81520000Y-29900001D03*
%TD*%
D26*
%TO.C,C3*%
X444600000Y-60050000D03*
X444600000Y-61600000D03*
%TD*%
D30*
%TO.C,U2*%
X440900000Y-61600000D03*
X440900000Y-60650000D03*
X440900000Y-59700000D03*
X443100000Y-59700000D03*
X443100000Y-61600000D03*
%TD*%
D31*
%TO.C,RST_S1*%
X336600000Y-122400000D03*
D32*
X334060000Y-122400000D03*
X331520000Y-122400000D03*
X328980000Y-122400000D03*
%TD*%
D25*
%TO.C,D56*%
X49101250Y-125150001D03*
X45801250Y-125150001D03*
%TD*%
%TO.C,D11*%
X237220000Y-29900001D03*
X233920000Y-29900001D03*
%TD*%
%TO.C,D110*%
X408670000Y-125150001D03*
X405370000Y-125150001D03*
%TD*%
%TO.C,D66*%
X375332500Y-125150001D03*
X372032500Y-125150001D03*
%TD*%
%TO.C,D80*%
X303895000Y-48950001D03*
X300595000Y-48950001D03*
%TD*%
D33*
%TO.C,LED1*%
X444400000Y-25600000D03*
X446500000Y-25600000D03*
%TD*%
D25*
%TO.C,D53*%
X222932500Y-106100001D03*
X219632500Y-106100001D03*
%TD*%
%TO.C,D16*%
X122920000Y-48950001D03*
X119620000Y-48950001D03*
%TD*%
%TO.C,D10*%
X218170000Y-29900001D03*
X214870000Y-29900001D03*
%TD*%
%TO.C,D14*%
X84820000Y-48950001D03*
X81520000Y-48950001D03*
%TD*%
%TO.C,D30*%
X189595000Y-68000001D03*
X186295000Y-68000001D03*
%TD*%
%TO.C,D99*%
X399145000Y-68000001D03*
X395845000Y-68000001D03*
%TD*%
%TO.C,D109*%
X418195000Y-87050001D03*
X414895000Y-87050001D03*
%TD*%
%TO.C,D20*%
X199120000Y-48950001D03*
X195820000Y-48950001D03*
%TD*%
D27*
%TO.C,C10*%
X336625000Y-98400000D03*
X338175000Y-98400000D03*
%TD*%
D25*
%TO.C,D27*%
X132445000Y-68000001D03*
X129145000Y-68000001D03*
%TD*%
%TO.C,D39*%
X156257500Y-87050001D03*
X152957500Y-87050001D03*
%TD*%
%TO.C,D48*%
X127682500Y-106100001D03*
X124382500Y-106100001D03*
%TD*%
%TO.C,D59*%
X168163750Y-125150001D03*
X164863750Y-125150001D03*
%TD*%
%TO.C,D87*%
X418195000Y-48950001D03*
X414895000Y-48950001D03*
%TD*%
%TO.C,D5*%
X122920000Y-29900001D03*
X119620000Y-29900001D03*
%TD*%
D34*
%TO.C,C5*%
X338150000Y-100640000D03*
X336600000Y-100640000D03*
%TD*%
D29*
%TO.C,D68*%
X418195000Y-36320000D03*
X418195000Y-33020000D03*
%TD*%
D25*
%TO.C,D40*%
X175307500Y-87050001D03*
X172007500Y-87050001D03*
%TD*%
D35*
%TO.C,IC1*%
X449211500Y-64800000D03*
X448711499Y-64800000D03*
X448211499Y-64800000D03*
X447711498Y-64800000D03*
X447711498Y-62006000D03*
X448211499Y-62006000D03*
X448711499Y-62006000D03*
X449211500Y-62006000D03*
D36*
X448461499Y-63403000D03*
%TD*%
D37*
%TO.C,R2*%
X447400000Y-78025000D03*
X447400000Y-76375000D03*
%TD*%
D25*
%TO.C,D64*%
X437245000Y-125150001D03*
X433945000Y-125150001D03*
%TD*%
%TO.C,D91*%
X308657500Y-68000001D03*
X305357500Y-68000001D03*
%TD*%
D38*
%TO.C,R5*%
X449000000Y-76375000D03*
X449000000Y-78025000D03*
%TD*%
D25*
%TO.C,D23*%
X51482500Y-68000001D03*
X48182500Y-68000001D03*
%TD*%
%TO.C,D94*%
X375332500Y-68000001D03*
X372032500Y-68000001D03*
%TD*%
%TO.C,D45*%
X58626250Y-106100001D03*
X55326250Y-106100001D03*
%TD*%
%TO.C,D7*%
X161020000Y-29900001D03*
X157720000Y-29900001D03*
%TD*%
%TO.C,D37*%
X118157500Y-87050001D03*
X114857500Y-87050001D03*
%TD*%
%TO.C,D55*%
X261032500Y-106100001D03*
X257732500Y-106100001D03*
%TD*%
D27*
%TO.C,C1*%
X450825000Y-64800000D03*
X452375000Y-64800000D03*
%TD*%
D25*
%TO.C,D19*%
X180070000Y-48950001D03*
X176770000Y-48950001D03*
%TD*%
D39*
%TO.C,R3*%
X455725000Y-64800000D03*
X454075000Y-64800000D03*
%TD*%
D25*
%TO.C,D98*%
X418195000Y-68000001D03*
X414895000Y-68000001D03*
%TD*%
%TO.C,D74*%
X356282500Y-29900001D03*
X352982500Y-29900001D03*
%TD*%
%TO.C,D17*%
X141970000Y-48950001D03*
X138670000Y-48950001D03*
%TD*%
%TO.C,D108*%
X437245000Y-106100001D03*
X433945000Y-106100001D03*
%TD*%
%TO.C,D63*%
X311038750Y-125150001D03*
X307738750Y-125150001D03*
%TD*%
D38*
%TO.C,R6*%
X329200000Y-87775000D03*
X329200000Y-89425000D03*
%TD*%
D25*
%TO.C,D12*%
X46720000Y-48950001D03*
X43420000Y-48950001D03*
%TD*%
D40*
%TO.C,D1000*%
X442830000Y-68165000D03*
X447970000Y-68165000D03*
%TD*%
D25*
%TO.C,D65*%
X418195000Y-106100001D03*
X414895000Y-106100001D03*
%TD*%
D41*
%TO.C,U4*%
X439550000Y-45200000D03*
D42*
X439550000Y-43200000D03*
%TD*%
D25*
%TO.C,D60*%
X239601250Y-125150001D03*
X236301250Y-125150001D03*
%TD*%
%TO.C,D15*%
X103870000Y-48950001D03*
X100570000Y-48950001D03*
%TD*%
D43*
%TO.C,RST_S2*%
X331160000Y-111800000D03*
X326800000Y-111800000D03*
%TD*%
D25*
%TO.C,D75*%
X375332500Y-29900001D03*
X372032500Y-29900001D03*
%TD*%
%TO.C,D2*%
X65770000Y-29900001D03*
X62470000Y-29900001D03*
%TD*%
%TO.C,D34*%
X53863750Y-87050001D03*
X50563750Y-87050001D03*
%TD*%
%TO.C,D4*%
X103870000Y-29900001D03*
X100570000Y-29900001D03*
%TD*%
%TO.C,D21*%
X218170000Y-48950001D03*
X214870000Y-48950001D03*
%TD*%
%TO.C,D31*%
X208645000Y-68000001D03*
X205345000Y-68000001D03*
%TD*%
%TO.C,D82*%
X356282500Y-48950001D03*
X352982500Y-48950001D03*
%TD*%
%TO.C,D28*%
X151495000Y-68000001D03*
X148195000Y-68000001D03*
%TD*%
%TO.C,D107*%
X456570000Y-115625000D03*
X453270000Y-115625000D03*
%TD*%
D39*
%TO.C,R7*%
X327590000Y-87600000D03*
X325940000Y-87600000D03*
%TD*%
D27*
%TO.C,C9*%
X336625000Y-92400000D03*
X338175000Y-92400000D03*
%TD*%
D25*
%TO.C,D104*%
X356282500Y-106100001D03*
X352982500Y-106100001D03*
%TD*%
%TO.C,D83*%
X375332500Y-48950001D03*
X372032500Y-48950001D03*
%TD*%
%TO.C,D105*%
X356282500Y-125150001D03*
X352982500Y-125150001D03*
%TD*%
%TO.C,D73*%
X337232500Y-29900001D03*
X333932500Y-29900001D03*
%TD*%
%TO.C,D36*%
X99107500Y-87050001D03*
X95807500Y-87050001D03*
%TD*%
D29*
%TO.C,D1*%
X46720000Y-36320000D03*
X46720000Y-33020000D03*
%TD*%
D25*
%TO.C,D90*%
X284845000Y-67800000D03*
X281545000Y-67800000D03*
%TD*%
%TO.C,D41*%
X194357500Y-87050001D03*
X191057500Y-87050001D03*
%TD*%
%TO.C,D29*%
X170545000Y-68000001D03*
X167245000Y-68000001D03*
%TD*%
%TO.C,D79*%
X275320000Y-48950001D03*
X272020000Y-48950001D03*
%TD*%
%TO.C,D81*%
X337232500Y-48950001D03*
X333932500Y-48950001D03*
%TD*%
%TO.C,D25*%
X94345000Y-68000001D03*
X91045000Y-68000001D03*
%TD*%
%TO.C,D62*%
X287226250Y-125150001D03*
X283926250Y-125150001D03*
%TD*%
%TO.C,D97*%
X437245000Y-68000000D03*
X433945000Y-68000000D03*
%TD*%
%TO.C,D46*%
X89582500Y-106100001D03*
X86282500Y-106100001D03*
%TD*%
%TO.C,D6*%
X141970000Y-29900001D03*
X138670000Y-29900001D03*
%TD*%
D34*
%TO.C,C8*%
X327590000Y-89425000D03*
X326040000Y-89425000D03*
%TD*%
%TO.C,C4*%
X442450000Y-63200000D03*
X440900000Y-63200000D03*
%TD*%
D25*
%TO.C,D51*%
X184832500Y-106100001D03*
X181532500Y-106100001D03*
%TD*%
D44*
%TO.C,X1*%
X336800000Y-94210000D03*
X336800000Y-96830000D03*
%TD*%
D25*
%TO.C,D42*%
X213407500Y-87050001D03*
X210107500Y-87050001D03*
%TD*%
%TO.C,D54*%
X241982500Y-106100001D03*
X238682500Y-106100001D03*
%TD*%
D26*
%TO.C,C12*%
X450400000Y-47750000D03*
X450400000Y-49300000D03*
%TD*%
D25*
%TO.C,D102*%
X296751250Y-106100001D03*
X293451250Y-106100001D03*
%TD*%
%TO.C,D33*%
X246745000Y-68000001D03*
X243445000Y-68000001D03*
%TD*%
D27*
%TO.C,C7*%
X335025000Y-107200000D03*
X336575000Y-107200000D03*
%TD*%
D25*
%TO.C,D43*%
X232457500Y-87050001D03*
X229157500Y-87050001D03*
%TD*%
%TO.C,D84*%
X434465000Y-87000000D03*
X431165000Y-87000000D03*
%TD*%
D29*
%TO.C,D8*%
X180070000Y-36320000D03*
X180070000Y-33020000D03*
%TD*%
D45*
%TO.C,U3*%
X319970000Y-93500000D03*
X321240000Y-93500000D03*
X322510000Y-93500000D03*
X323780000Y-93500000D03*
X325050000Y-93500000D03*
X326320000Y-93500000D03*
X327590000Y-93500000D03*
X328860000Y-93500000D03*
X330130000Y-93500000D03*
X331400000Y-93500000D03*
D46*
X334000000Y-95560000D03*
D47*
X331900000Y-96190000D03*
D46*
X334000000Y-96830000D03*
D47*
X331900000Y-97460000D03*
D46*
X334000000Y-98100000D03*
D47*
X331900000Y-98730000D03*
D46*
X334000000Y-99370000D03*
D47*
X331900000Y-100000000D03*
D46*
X334000000Y-100640000D03*
D47*
X331900000Y-101270000D03*
D46*
X334000000Y-101910000D03*
D47*
X331900000Y-102540000D03*
D46*
X334000000Y-103180000D03*
D47*
X331900000Y-103810000D03*
D46*
X334000000Y-104450000D03*
D45*
X331400000Y-106500000D03*
X330130000Y-106500000D03*
D47*
X329495000Y-104400000D03*
D45*
X328860000Y-106500000D03*
D47*
X328225000Y-104400000D03*
D45*
X327590000Y-106500000D03*
D47*
X326955000Y-104400000D03*
D45*
X326320000Y-106500000D03*
D47*
X325685000Y-104400000D03*
D45*
X325050000Y-106500000D03*
D47*
X324415000Y-104400000D03*
D45*
X323780000Y-106500000D03*
D47*
X323145000Y-104400000D03*
D45*
X322510000Y-106500000D03*
D47*
X321875000Y-104400000D03*
D45*
X321240000Y-106500000D03*
D47*
X320605000Y-104400000D03*
D45*
X319970000Y-106500000D03*
%TD*%
D29*
%TO.C,D76*%
X437245000Y-36320000D03*
X437245000Y-33020000D03*
%TD*%
D25*
%TO.C,D49*%
X146732500Y-106100001D03*
X143432500Y-106100001D03*
%TD*%
%TO.C,D100*%
X270557500Y-87050001D03*
X267257500Y-87050001D03*
%TD*%
%TO.C,D67*%
X456570000Y-33200000D03*
X453270000Y-33200000D03*
%TD*%
%TO.C,D35*%
X80057500Y-87050001D03*
X76757500Y-87050001D03*
%TD*%
%TO.C,D32*%
X227695000Y-68000001D03*
X224395000Y-68000001D03*
%TD*%
%TO.C,D71*%
X294370000Y-29900001D03*
X291070000Y-29900001D03*
%TD*%
%TO.C,D85*%
X456570000Y-48950000D03*
X453270000Y-48950000D03*
%TD*%
D48*
%TO.C,R1*%
X448850000Y-25600000D03*
X450500000Y-25600000D03*
%TD*%
D49*
%TO.C,Q1*%
X445150000Y-66000000D03*
X443250000Y-66000000D03*
X444200000Y-64000000D03*
%TD*%
D25*
%TO.C,D101*%
X301513750Y-87050001D03*
X298213750Y-87050001D03*
%TD*%
%TO.C,D95*%
X400200000Y-84400000D03*
X396900000Y-84400000D03*
%TD*%
D39*
%TO.C,R4*%
X452425000Y-62006000D03*
X450775000Y-62006000D03*
%TD*%
D25*
%TO.C,D103*%
X338200000Y-125150001D03*
X334900000Y-125150001D03*
%TD*%
M02*
