%TF.GenerationSoftware,KiCad,Pcbnew,10.0.5*%
%TF.CreationDate,2026-08-25T01:29:55+10:00*%
%TF.ProjectId,V2,56322e6b-6963-4616-945f-706362585858,rev?*%
%TF.SameCoordinates,Original*%
%TF.FileFunction,Paste,Bot*%
%TF.FilePolarity,Positive*%
%FSLAX46Y46*%
G04 Gerber Fmt 4.6, Leading zero omitted, Abs format (unit mm)*
G04 Created by KiCad (PCBNEW 10.0.5) date 2026-08-25 01:29:55*
%MOMM*%
%LPD*%
G01*
G04 APERTURE LIST*
G04 Aperture macros list*
%AMRoundRect*
0 Rectangle with rounded corners*
0 $1 Rounding radius*
0 $2 $3 $4 $5 $6 $7 $8 $9 X,Y pos of 4 corners*
0 Add a 4 corners polygon primitive as box body*
4,1,4,$2,$3,$4,$5,$6,$7,$8,$9,$2,$3,0*
0 Add four circle primitives for the rounded corners*
1,1,$1+$1,$2,$3*
1,1,$1+$1,$4,$5*
1,1,$1+$1,$6,$7*
1,1,$1+$1,$8,$9*
0 Add four rect primitives between the rounded corners*
20,1,$1+$1,$2,$3,$4,$5,0*
20,1,$1+$1,$4,$5,$6,$7,0*
20,1,$1+$1,$6,$7,$8,$9,0*
20,1,$1+$1,$8,$9,$2,$3,0*%
G04 Aperture macros list end*
%ADD10RoundRect,0.250000X-1.025000X-1.000000X1.025000X-1.000000X1.025000X1.000000X-1.025000X1.000000X0*%
%ADD11R,1.200000X0.700000*%
%ADD12R,0.600000X1.524000*%
%ADD13R,1.150000X0.300000*%
%ADD14R,1.150000X0.600000*%
%ADD15RoundRect,0.225000X0.225000X0.375000X-0.225000X0.375000X-0.225000X-0.375000X0.225000X-0.375000X0*%
%ADD16RoundRect,0.225000X-0.250000X0.225000X-0.250000X-0.225000X0.250000X-0.225000X0.250000X0.225000X0*%
%ADD17RoundRect,0.225000X-0.225000X-0.250000X0.225000X-0.250000X0.225000X0.250000X-0.225000X0.250000X0*%
%ADD18RoundRect,0.225000X0.250000X-0.225000X0.250000X0.225000X-0.250000X0.225000X-0.250000X-0.225000X0*%
%ADD19RoundRect,0.225000X0.375000X-0.225000X0.375000X0.225000X-0.375000X0.225000X-0.375000X-0.225000X0*%
%ADD20R,1.000000X0.600000*%
%ADD21R,1.000000X1.400000*%
%ADD22RoundRect,0.225000X0.225000X0.250000X-0.225000X0.250000X-0.225000X-0.250000X0.225000X-0.250000X0*%
%ADD23R,0.254000X0.812800*%
%ADD24R,1.549400X1.752600*%
%ADD25RoundRect,0.200000X0.275000X-0.200000X0.275000X0.200000X-0.275000X0.200000X-0.275000X-0.200000X0*%
%ADD26RoundRect,0.200000X-0.275000X0.200000X-0.275000X-0.200000X0.275000X-0.200000X0.275000X0.200000X0*%
%ADD27RoundRect,0.200000X0.200000X0.275000X-0.200000X0.275000X-0.200000X-0.275000X0.200000X-0.275000X0*%
%ADD28R,2.200000X1.700000*%
%ADD29R,1.230000X1.860000*%
%ADD30R,1.600000X0.950000*%
%ADD31R,1.000000X2.000000*%
%ADD32R,2.000000X1.000000*%
%ADD33R,0.900000X0.900000*%
%ADD34RoundRect,0.200000X-0.200000X-0.275000X0.200000X-0.275000X0.200000X0.275000X-0.200000X0.275000X0*%
%ADD35R,0.650000X1.000000*%
G04 APERTURE END LIST*
D10*
%TO.C,SW71*%
X291592000Y-33020000D03*
X278665000Y-35560000D03*
%TD*%
D11*
%TO.C,PWR_S1*%
X429100000Y-26796500D03*
X429100000Y-24496500D03*
X421900000Y-26796500D03*
X421900000Y-24496500D03*
D12*
X427750000Y-27896500D03*
X426250000Y-27896500D03*
X423250000Y-27896500D03*
%TD*%
D13*
%TO.C,U1*%
X450630000Y-69130000D03*
X450630000Y-70130000D03*
X450630000Y-71630000D03*
X450630000Y-72630000D03*
D14*
X450630000Y-73280000D03*
X450630000Y-74080000D03*
D13*
X450630000Y-72130000D03*
X450630000Y-71130000D03*
X450630000Y-70630000D03*
X450630000Y-69630000D03*
D14*
X450630000Y-68480000D03*
X450630000Y-67680000D03*
%TD*%
D10*
%TO.C,SW11*%
X221515000Y-35560000D03*
X234442000Y-33020000D03*
%TD*%
%TO.C,SW60*%
X223896250Y-130810000D03*
X236823250Y-128270000D03*
%TD*%
%TO.C,SW20*%
X183415000Y-54610000D03*
X196342000Y-52070000D03*
%TD*%
%TO.C,SW26*%
X97690000Y-73660000D03*
X110617000Y-71120000D03*
%TD*%
%TO.C,SW89*%
X250090000Y-73660000D03*
X263017000Y-71120000D03*
%TD*%
%TO.C,SW108*%
X421540000Y-111760000D03*
X434467000Y-109220000D03*
%TD*%
%TO.C,SW3*%
X69115000Y-35560000D03*
X82042000Y-33020000D03*
%TD*%
%TO.C,SW31*%
X192940000Y-73660000D03*
X205867000Y-71120000D03*
%TD*%
%TO.C,SW47*%
X92927500Y-111760000D03*
X105854500Y-109220000D03*
%TD*%
%TO.C,SW59*%
X152458750Y-130810000D03*
X165385750Y-128270000D03*
%TD*%
%TO.C,SW73*%
X321527500Y-35560000D03*
X334454500Y-33020000D03*
%TD*%
%TO.C,SW72*%
X297715000Y-35560000D03*
X310642000Y-33020000D03*
%TD*%
%TO.C,SW75*%
X359627500Y-35560000D03*
X372554500Y-33020000D03*
%TD*%
%TO.C,SW64*%
X421540000Y-130810000D03*
X434467000Y-128270000D03*
%TD*%
%TO.C,SW39*%
X140552500Y-92710000D03*
X153479500Y-90170000D03*
%TD*%
%TO.C,SW110*%
X392965000Y-130810000D03*
X405892000Y-128270000D03*
%TD*%
%TO.C,SW35*%
X64352500Y-92710000D03*
X77279500Y-90170000D03*
%TD*%
%TO.C,SW99*%
X383440000Y-73660000D03*
X396367000Y-71120000D03*
%TD*%
%TO.C,SW104*%
X340577500Y-111760000D03*
X353504500Y-109220000D03*
%TD*%
%TO.C,SW97*%
X421540000Y-73660000D03*
X434467000Y-71120000D03*
%TD*%
%TO.C,SW76*%
X421540000Y-35560000D03*
X434467000Y-33020000D03*
%TD*%
%TO.C,SW36*%
X83402500Y-92710000D03*
X96329500Y-90170000D03*
%TD*%
%TO.C,SW81*%
X321527500Y-54610000D03*
X334454500Y-52070000D03*
%TD*%
%TO.C,SW42*%
X197702500Y-92710000D03*
X210629500Y-90170000D03*
%TD*%
%TO.C,SW70*%
X259615000Y-35560000D03*
X272542000Y-33020000D03*
%TD*%
%TO.C,SW77*%
X383440000Y-35560000D03*
X396367000Y-33020000D03*
%TD*%
%TO.C,SW56*%
X33396250Y-130810000D03*
X46323250Y-128270000D03*
%TD*%
%TO.C,SW90*%
X269140000Y-73660000D03*
X282067000Y-71120000D03*
%TD*%
%TO.C,SW44*%
X235802500Y-92710000D03*
X248729500Y-90170000D03*
%TD*%
%TO.C,SW2*%
X50065000Y-35560000D03*
X62992000Y-33020000D03*
%TD*%
%TO.C,SW65*%
X402490000Y-111760000D03*
X415417000Y-109220000D03*
%TD*%
%TO.C,SW16*%
X107215000Y-54610000D03*
X120142000Y-52070000D03*
%TD*%
%TO.C,SW33*%
X231040000Y-73660000D03*
X243967000Y-71120000D03*
%TD*%
%TO.C,SW50*%
X150077500Y-111760000D03*
X163004500Y-109220000D03*
%TD*%
%TO.C,SW51*%
X169127500Y-111760000D03*
X182054500Y-109220000D03*
%TD*%
%TO.C,SW58*%
X81021250Y-130810000D03*
X93948250Y-128270000D03*
%TD*%
%TO.C,SW32*%
X211990000Y-73660000D03*
X224917000Y-71120000D03*
%TD*%
%TO.C,SW25*%
X78640000Y-73660000D03*
X91567000Y-71120000D03*
%TD*%
%TO.C,SW5*%
X107215000Y-35560000D03*
X120142000Y-33020000D03*
%TD*%
%TO.C,SW17*%
X126265000Y-54610000D03*
X139192000Y-52070000D03*
%TD*%
%TO.C,SW49*%
X131027500Y-111760000D03*
X143954500Y-109220000D03*
%TD*%
%TO.C,SW15*%
X88165000Y-54610000D03*
X101092000Y-52070000D03*
%TD*%
%TO.C,SW103*%
X321527500Y-130810000D03*
X334454500Y-128270000D03*
%TD*%
%TO.C,SW95*%
X383440000Y-92710000D03*
X396367000Y-90170000D03*
%TD*%
%TO.C,SW92*%
X321527500Y-73660000D03*
X334454500Y-71120000D03*
%TD*%
%TO.C,SW93*%
X340577500Y-73660000D03*
X353504500Y-71120000D03*
%TD*%
%TO.C,SW101*%
X285808750Y-92710000D03*
X298735750Y-90170000D03*
%TD*%
%TO.C,SW10*%
X202465000Y-35560000D03*
X215392000Y-33020000D03*
%TD*%
%TO.C,SW46*%
X73877500Y-111760000D03*
X86804500Y-109220000D03*
%TD*%
%TO.C,SW80*%
X288190000Y-54610000D03*
X301117000Y-52070000D03*
%TD*%
%TO.C,SW78*%
X240565000Y-54610000D03*
X253492000Y-52070000D03*
%TD*%
%TO.C,SW106*%
X383440000Y-111760000D03*
X396367000Y-109220000D03*
%TD*%
%TO.C,SW82*%
X340577500Y-54610000D03*
X353504500Y-52070000D03*
%TD*%
%TO.C,SW102*%
X281046250Y-111760000D03*
X293973250Y-109220000D03*
%TD*%
%TO.C,SW18*%
X145315000Y-54610000D03*
X158242000Y-52070000D03*
%TD*%
%TO.C,SW94*%
X359627500Y-73660000D03*
X372554500Y-71120000D03*
%TD*%
%TO.C,SW6*%
X126265000Y-35560000D03*
X139192000Y-33020000D03*
%TD*%
%TO.C,SW24*%
X59590000Y-73660000D03*
X72517000Y-71120000D03*
%TD*%
%TO.C,SW69*%
X240565000Y-35560000D03*
X253492000Y-33020000D03*
%TD*%
%TO.C,SW54*%
X226277500Y-111760000D03*
X239204500Y-109220000D03*
%TD*%
%TO.C,SW83*%
X359627500Y-54610000D03*
X372554500Y-52070000D03*
%TD*%
%TO.C,SW63*%
X295333750Y-130810000D03*
X308260750Y-128270000D03*
%TD*%
%TO.C,SW13*%
X50065000Y-54610000D03*
X62992000Y-52070000D03*
%TD*%
%TO.C,SW86*%
X421540000Y-54610000D03*
X434467000Y-52070000D03*
%TD*%
%TO.C,SW98*%
X402490000Y-73660000D03*
X415417000Y-71120000D03*
%TD*%
%TO.C,SW1*%
X31015000Y-35560000D03*
X43942000Y-33020000D03*
%TD*%
%TO.C,SW21*%
X202465000Y-54610000D03*
X215392000Y-52070000D03*
%TD*%
%TO.C,SW23*%
X35777500Y-73660000D03*
X48704500Y-71120000D03*
%TD*%
%TO.C,SW7*%
X145315000Y-35560000D03*
X158242000Y-33020000D03*
%TD*%
%TO.C,SW91*%
X292952500Y-73660000D03*
X305879500Y-71120000D03*
%TD*%
%TO.C,SW61*%
X247708750Y-130810000D03*
X260635750Y-128270000D03*
%TD*%
%TO.C,SW12*%
X31015000Y-54610000D03*
X43942000Y-52070000D03*
%TD*%
%TO.C,SW52*%
X188177500Y-111760000D03*
X201104500Y-109220000D03*
%TD*%
%TO.C,SW43*%
X216752500Y-92710000D03*
X229679500Y-90170000D03*
%TD*%
%TO.C,SW74*%
X340577500Y-35560000D03*
X353504500Y-33020000D03*
%TD*%
%TO.C,SW29*%
X154840000Y-73660000D03*
X167767000Y-71120000D03*
%TD*%
%TO.C,SW34*%
X38158750Y-92710000D03*
X51085750Y-90170000D03*
%TD*%
%TO.C,SW40*%
X159602500Y-92710000D03*
X172529500Y-90170000D03*
%TD*%
%TO.C,SW4*%
X88165000Y-35560000D03*
X101092000Y-33020000D03*
%TD*%
%TO.C,SW55*%
X245327500Y-111760000D03*
X258254500Y-109220000D03*
%TD*%
%TO.C,SW79*%
X259615000Y-54610000D03*
X272542000Y-52070000D03*
%TD*%
%TO.C,SW57*%
X57208750Y-130810000D03*
X70135750Y-128270000D03*
%TD*%
%TO.C,SW9*%
X183415000Y-35560000D03*
X196342000Y-33020000D03*
%TD*%
%TO.C,SW38*%
X121502500Y-92710000D03*
X134429500Y-90170000D03*
%TD*%
%TO.C,SW107*%
X440590000Y-121285000D03*
X453517000Y-118745000D03*
%TD*%
%TO.C,SW41*%
X178652500Y-92710000D03*
X191579500Y-90170000D03*
%TD*%
%TO.C,SW22*%
X221515000Y-54610000D03*
X234442000Y-52070000D03*
%TD*%
%TO.C,SW100*%
X254852500Y-92710000D03*
X267779500Y-90170000D03*
%TD*%
%TO.C,SW8*%
X164365000Y-35560000D03*
X177292000Y-33020000D03*
%TD*%
%TO.C,SW68*%
X402490000Y-35560000D03*
X415417000Y-33020000D03*
%TD*%
%TO.C,SW27*%
X116740000Y-73660000D03*
X129667000Y-71120000D03*
%TD*%
%TO.C,SW53*%
X207227500Y-111760000D03*
X220154500Y-109220000D03*
%TD*%
%TO.C,SW30*%
X173890000Y-73660000D03*
X186817000Y-71120000D03*
%TD*%
%TO.C,SW85*%
X440390001Y-54610000D03*
X453317001Y-52070000D03*
%TD*%
%TO.C,SW28*%
X135790000Y-73660000D03*
X148717000Y-71120000D03*
%TD*%
%TO.C,SW105*%
X340577500Y-130810000D03*
X353504500Y-128270000D03*
%TD*%
%TO.C,SW109*%
X402490000Y-92710000D03*
X415417000Y-90170000D03*
%TD*%
%TO.C,SW62*%
X271521250Y-130810000D03*
X284448250Y-128270000D03*
%TD*%
%TO.C,SW19*%
X164365000Y-54610000D03*
X177292000Y-52070000D03*
%TD*%
%TO.C,SW88*%
X383440000Y-54610000D03*
X396367000Y-52070000D03*
%TD*%
%TO.C,SW87*%
X402490000Y-54610000D03*
X415417000Y-52070000D03*
%TD*%
%TO.C,SW45*%
X42921250Y-111760000D03*
X55848250Y-109220000D03*
%TD*%
%TO.C,SW84*%
X421540000Y-92710000D03*
X434467000Y-90170000D03*
%TD*%
%TO.C,SW48*%
X111977500Y-111760000D03*
X124904500Y-109220000D03*
%TD*%
%TO.C,SW66*%
X359627500Y-130810000D03*
X372554500Y-128270000D03*
%TD*%
%TO.C,SW96*%
X440590000Y-83185000D03*
X453517000Y-80645000D03*
%TD*%
%TO.C,SW37*%
X102452500Y-92710000D03*
X115379500Y-90170000D03*
%TD*%
%TO.C,SW14*%
X69115000Y-54610000D03*
X82042000Y-52070000D03*
%TD*%
D15*
%TO.C,D106*%
X400200000Y-106100001D03*
X396900000Y-106100001D03*
%TD*%
%TO.C,D24*%
X75295000Y-68000001D03*
X71995000Y-68000001D03*
%TD*%
%TO.C,D26*%
X113395000Y-68000001D03*
X110095000Y-68000001D03*
%TD*%
D16*
%TO.C,C11*%
X445200000Y-47750000D03*
X445200000Y-49300000D03*
%TD*%
D15*
%TO.C,D47*%
X108632500Y-106100001D03*
X105332500Y-106100001D03*
%TD*%
%TO.C,D69*%
X256270000Y-29900001D03*
X252970000Y-29900001D03*
%TD*%
%TO.C,D78*%
X256270000Y-48950001D03*
X252970000Y-48950001D03*
%TD*%
%TO.C,D52*%
X203882500Y-106100001D03*
X200582500Y-106100001D03*
%TD*%
%TO.C,D70*%
X275320000Y-29900001D03*
X272020000Y-29900001D03*
%TD*%
D17*
%TO.C,C6*%
X336600000Y-103180000D03*
X338150000Y-103180000D03*
%TD*%
D15*
%TO.C,D58*%
X96726250Y-125150001D03*
X93426250Y-125150001D03*
%TD*%
%TO.C,D77*%
X399145000Y-29900001D03*
X395845000Y-29900001D03*
%TD*%
%TO.C,D61*%
X263413750Y-125150001D03*
X260113750Y-125150001D03*
%TD*%
D18*
%TO.C,C2*%
X443780000Y-45200000D03*
X443780000Y-43650000D03*
%TD*%
D15*
%TO.C,D57*%
X72913750Y-125150001D03*
X69613750Y-125150001D03*
%TD*%
%TO.C,D18*%
X161020000Y-48950001D03*
X157720000Y-48950001D03*
%TD*%
%TO.C,D38*%
X137207500Y-87050001D03*
X133907500Y-87050001D03*
%TD*%
D19*
%TO.C,D72*%
X313600000Y-36320000D03*
X313600000Y-33020000D03*
%TD*%
D15*
%TO.C,D22*%
X237220000Y-48950001D03*
X233920000Y-48950001D03*
%TD*%
%TO.C,D89*%
X265795000Y-68000001D03*
X262495000Y-68000001D03*
%TD*%
%TO.C,D88*%
X399145000Y-48950001D03*
X395845000Y-48950001D03*
%TD*%
%TO.C,D9*%
X199120000Y-29900001D03*
X195820000Y-29900001D03*
%TD*%
%TO.C,D50*%
X165782500Y-106100001D03*
X162482500Y-106100001D03*
%TD*%
%TO.C,D96*%
X456570000Y-77525000D03*
X453270000Y-77525000D03*
%TD*%
%TO.C,D92*%
X337232500Y-68000001D03*
X333932500Y-68000001D03*
%TD*%
%TO.C,D44*%
X251507500Y-87050001D03*
X248207500Y-87050001D03*
%TD*%
%TO.C,D13*%
X65770000Y-48950001D03*
X62470000Y-48950001D03*
%TD*%
%TO.C,D86*%
X437245000Y-48950001D03*
X433945000Y-48950001D03*
%TD*%
%TO.C,D93*%
X356282500Y-68000001D03*
X352982500Y-68000001D03*
%TD*%
%TO.C,D3*%
X84820000Y-29900001D03*
X81520000Y-29900001D03*
%TD*%
D16*
%TO.C,C3*%
X444600000Y-60050000D03*
X444600000Y-61600000D03*
%TD*%
D20*
%TO.C,U2*%
X440900000Y-61600000D03*
X440900000Y-60650000D03*
X440900000Y-59700000D03*
X443100000Y-59700000D03*
X443100000Y-61600000D03*
%TD*%
D15*
%TO.C,D56*%
X49101250Y-125150001D03*
X45801250Y-125150001D03*
%TD*%
%TO.C,D11*%
X237220000Y-29900001D03*
X233920000Y-29900001D03*
%TD*%
%TO.C,D110*%
X408670000Y-125150001D03*
X405370000Y-125150001D03*
%TD*%
%TO.C,D66*%
X375332500Y-125150001D03*
X372032500Y-125150001D03*
%TD*%
%TO.C,D80*%
X303895000Y-48950001D03*
X300595000Y-48950001D03*
%TD*%
D21*
%TO.C,LED1*%
X444400000Y-25600000D03*
X446500000Y-25600000D03*
%TD*%
D15*
%TO.C,D53*%
X222932500Y-106100001D03*
X219632500Y-106100001D03*
%TD*%
%TO.C,D16*%
X122920000Y-48950001D03*
X119620000Y-48950001D03*
%TD*%
%TO.C,D10*%
X218170000Y-29900001D03*
X214870000Y-29900001D03*
%TD*%
%TO.C,D14*%
X84820000Y-48950001D03*
X81520000Y-48950001D03*
%TD*%
%TO.C,D30*%
X189595000Y-68000001D03*
X186295000Y-68000001D03*
%TD*%
%TO.C,D99*%
X399145000Y-68000001D03*
X395845000Y-68000001D03*
%TD*%
%TO.C,D109*%
X418195000Y-87050001D03*
X414895000Y-87050001D03*
%TD*%
%TO.C,D20*%
X199120000Y-48950001D03*
X195820000Y-48950001D03*
%TD*%
D17*
%TO.C,C10*%
X336625000Y-98400000D03*
X338175000Y-98400000D03*
%TD*%
D15*
%TO.C,D27*%
X132445000Y-68000001D03*
X129145000Y-68000001D03*
%TD*%
%TO.C,D39*%
X156257500Y-87050001D03*
X152957500Y-87050001D03*
%TD*%
%TO.C,D48*%
X127682500Y-106100001D03*
X124382500Y-106100001D03*
%TD*%
%TO.C,D59*%
X168163750Y-125150001D03*
X164863750Y-125150001D03*
%TD*%
%TO.C,D87*%
X418195000Y-48950001D03*
X414895000Y-48950001D03*
%TD*%
%TO.C,D5*%
X122920000Y-29900001D03*
X119620000Y-29900001D03*
%TD*%
D22*
%TO.C,C5*%
X338150000Y-100640000D03*
X336600000Y-100640000D03*
%TD*%
D19*
%TO.C,D68*%
X418195000Y-36320000D03*
X418195000Y-33020000D03*
%TD*%
D15*
%TO.C,D40*%
X175307500Y-87050001D03*
X172007500Y-87050001D03*
%TD*%
D23*
%TO.C,IC1*%
X449211500Y-64800000D03*
X448711499Y-64800000D03*
X448211499Y-64800000D03*
X447711498Y-64800000D03*
X447711498Y-62006000D03*
X448211499Y-62006000D03*
X448711499Y-62006000D03*
X449211500Y-62006000D03*
D24*
X448461499Y-63403000D03*
%TD*%
D25*
%TO.C,R2*%
X447400000Y-78025000D03*
X447400000Y-76375000D03*
%TD*%
D15*
%TO.C,D64*%
X437245000Y-125150001D03*
X433945000Y-125150001D03*
%TD*%
%TO.C,D91*%
X308657500Y-68000001D03*
X305357500Y-68000001D03*
%TD*%
D26*
%TO.C,R5*%
X449000000Y-76375000D03*
X449000000Y-78025000D03*
%TD*%
D15*
%TO.C,D23*%
X51482500Y-68000001D03*
X48182500Y-68000001D03*
%TD*%
%TO.C,D94*%
X375332500Y-68000001D03*
X372032500Y-68000001D03*
%TD*%
%TO.C,D45*%
X58626250Y-106100001D03*
X55326250Y-106100001D03*
%TD*%
%TO.C,D7*%
X161020000Y-29900001D03*
X157720000Y-29900001D03*
%TD*%
%TO.C,D37*%
X118157500Y-87050001D03*
X114857500Y-87050001D03*
%TD*%
%TO.C,D55*%
X261032500Y-106100001D03*
X257732500Y-106100001D03*
%TD*%
D17*
%TO.C,C1*%
X450825000Y-64800000D03*
X452375000Y-64800000D03*
%TD*%
D15*
%TO.C,D19*%
X180070000Y-48950001D03*
X176770000Y-48950001D03*
%TD*%
D27*
%TO.C,R3*%
X455725000Y-64800000D03*
X454075000Y-64800000D03*
%TD*%
D15*
%TO.C,D98*%
X418195000Y-68000001D03*
X414895000Y-68000001D03*
%TD*%
%TO.C,D74*%
X356282500Y-29900001D03*
X352982500Y-29900001D03*
%TD*%
%TO.C,D17*%
X141970000Y-48950001D03*
X138670000Y-48950001D03*
%TD*%
%TO.C,D108*%
X437245000Y-106100001D03*
X433945000Y-106100001D03*
%TD*%
%TO.C,D63*%
X311038750Y-125150001D03*
X307738750Y-125150001D03*
%TD*%
D26*
%TO.C,R6*%
X329200000Y-87775000D03*
X329200000Y-89425000D03*
%TD*%
D15*
%TO.C,D12*%
X46720000Y-48950001D03*
X43420000Y-48950001D03*
%TD*%
D28*
%TO.C,D1000*%
X442830000Y-68165000D03*
X447970000Y-68165000D03*
%TD*%
D15*
%TO.C,D65*%
X418195000Y-106100001D03*
X414895000Y-106100001D03*
%TD*%
%TO.C,D60*%
X239601250Y-125150001D03*
X236301250Y-125150001D03*
%TD*%
%TO.C,D15*%
X103870000Y-48950001D03*
X100570000Y-48950001D03*
%TD*%
D29*
%TO.C,RST_S2*%
X331160000Y-111800000D03*
X326800000Y-111800000D03*
%TD*%
D15*
%TO.C,D75*%
X375332500Y-29900001D03*
X372032500Y-29900001D03*
%TD*%
%TO.C,D2*%
X65770000Y-29900001D03*
X62470000Y-29900001D03*
%TD*%
%TO.C,D34*%
X53863750Y-87050001D03*
X50563750Y-87050001D03*
%TD*%
%TO.C,D4*%
X103870000Y-29900001D03*
X100570000Y-29900001D03*
%TD*%
%TO.C,D21*%
X218170000Y-48950001D03*
X214870000Y-48950001D03*
%TD*%
%TO.C,D31*%
X208645000Y-68000001D03*
X205345000Y-68000001D03*
%TD*%
%TO.C,D82*%
X356282500Y-48950001D03*
X352982500Y-48950001D03*
%TD*%
%TO.C,D28*%
X151495000Y-68000001D03*
X148195000Y-68000001D03*
%TD*%
%TO.C,D107*%
X456570000Y-115625000D03*
X453270000Y-115625000D03*
%TD*%
D27*
%TO.C,R7*%
X327590000Y-87600000D03*
X325940000Y-87600000D03*
%TD*%
D17*
%TO.C,C9*%
X336625000Y-92400000D03*
X338175000Y-92400000D03*
%TD*%
D15*
%TO.C,D104*%
X356282500Y-106100001D03*
X352982500Y-106100001D03*
%TD*%
%TO.C,D83*%
X375332500Y-48950001D03*
X372032500Y-48950001D03*
%TD*%
%TO.C,D105*%
X356282500Y-125150001D03*
X352982500Y-125150001D03*
%TD*%
%TO.C,D73*%
X337232500Y-29900001D03*
X333932500Y-29900001D03*
%TD*%
%TO.C,D36*%
X99107500Y-87050001D03*
X95807500Y-87050001D03*
%TD*%
D19*
%TO.C,D1*%
X46720000Y-36320000D03*
X46720000Y-33020000D03*
%TD*%
D15*
%TO.C,D90*%
X284845000Y-67800000D03*
X281545000Y-67800000D03*
%TD*%
%TO.C,D41*%
X194357500Y-87050001D03*
X191057500Y-87050001D03*
%TD*%
%TO.C,D29*%
X170545000Y-68000001D03*
X167245000Y-68000001D03*
%TD*%
%TO.C,D79*%
X275320000Y-48950001D03*
X272020000Y-48950001D03*
%TD*%
%TO.C,D81*%
X337232500Y-48950001D03*
X333932500Y-48950001D03*
%TD*%
%TO.C,D25*%
X94345000Y-68000001D03*
X91045000Y-68000001D03*
%TD*%
%TO.C,D62*%
X287226250Y-125150001D03*
X283926250Y-125150001D03*
%TD*%
%TO.C,D97*%
X437245000Y-68000000D03*
X433945000Y-68000000D03*
%TD*%
%TO.C,D46*%
X89582500Y-106100001D03*
X86282500Y-106100001D03*
%TD*%
%TO.C,D6*%
X141970000Y-29900001D03*
X138670000Y-29900001D03*
%TD*%
D22*
%TO.C,C8*%
X327590000Y-89425000D03*
X326040000Y-89425000D03*
%TD*%
%TO.C,C4*%
X442450000Y-63200000D03*
X440900000Y-63200000D03*
%TD*%
D15*
%TO.C,D51*%
X184832500Y-106100001D03*
X181532500Y-106100001D03*
%TD*%
D30*
%TO.C,X1*%
X336800000Y-94210000D03*
X336800000Y-96830000D03*
%TD*%
D15*
%TO.C,D42*%
X213407500Y-87050001D03*
X210107500Y-87050001D03*
%TD*%
%TO.C,D54*%
X241982500Y-106100001D03*
X238682500Y-106100001D03*
%TD*%
D16*
%TO.C,C12*%
X450400000Y-47750000D03*
X450400000Y-49300000D03*
%TD*%
D15*
%TO.C,D102*%
X296751250Y-106100001D03*
X293451250Y-106100001D03*
%TD*%
%TO.C,D33*%
X246745000Y-68000001D03*
X243445000Y-68000001D03*
%TD*%
D17*
%TO.C,C7*%
X335025000Y-107200000D03*
X336575000Y-107200000D03*
%TD*%
D15*
%TO.C,D43*%
X232457500Y-87050001D03*
X229157500Y-87050001D03*
%TD*%
%TO.C,D84*%
X434465000Y-87000000D03*
X431165000Y-87000000D03*
%TD*%
D19*
%TO.C,D8*%
X180070000Y-36320000D03*
X180070000Y-33020000D03*
%TD*%
D31*
%TO.C,U3*%
X319970000Y-93500000D03*
X321240000Y-93500000D03*
X322510000Y-93500000D03*
X323780000Y-93500000D03*
X325050000Y-93500000D03*
X326320000Y-93500000D03*
X327590000Y-93500000D03*
X328860000Y-93500000D03*
X330130000Y-93500000D03*
X331400000Y-93500000D03*
D32*
X334000000Y-95560000D03*
D33*
X331900000Y-96190000D03*
D32*
X334000000Y-96830000D03*
D33*
X331900000Y-97460000D03*
D32*
X334000000Y-98100000D03*
D33*
X331900000Y-98730000D03*
D32*
X334000000Y-99370000D03*
D33*
X331900000Y-100000000D03*
D32*
X334000000Y-100640000D03*
D33*
X331900000Y-101270000D03*
D32*
X334000000Y-101910000D03*
D33*
X331900000Y-102540000D03*
D32*
X334000000Y-103180000D03*
D33*
X331900000Y-103810000D03*
D32*
X334000000Y-104450000D03*
D31*
X331400000Y-106500000D03*
X330130000Y-106500000D03*
D33*
X329495000Y-104400000D03*
D31*
X328860000Y-106500000D03*
D33*
X328225000Y-104400000D03*
D31*
X327590000Y-106500000D03*
D33*
X326955000Y-104400000D03*
D31*
X326320000Y-106500000D03*
D33*
X325685000Y-104400000D03*
D31*
X325050000Y-106500000D03*
D33*
X324415000Y-104400000D03*
D31*
X323780000Y-106500000D03*
D33*
X323145000Y-104400000D03*
D31*
X322510000Y-106500000D03*
D33*
X321875000Y-104400000D03*
D31*
X321240000Y-106500000D03*
D33*
X320605000Y-104400000D03*
D31*
X319970000Y-106500000D03*
%TD*%
D19*
%TO.C,D76*%
X437245000Y-36320000D03*
X437245000Y-33020000D03*
%TD*%
D15*
%TO.C,D49*%
X146732500Y-106100001D03*
X143432500Y-106100001D03*
%TD*%
%TO.C,D100*%
X270557500Y-87050001D03*
X267257500Y-87050001D03*
%TD*%
%TO.C,D67*%
X456570000Y-33200000D03*
X453270000Y-33200000D03*
%TD*%
%TO.C,D35*%
X80057500Y-87050001D03*
X76757500Y-87050001D03*
%TD*%
%TO.C,D32*%
X227695000Y-68000001D03*
X224395000Y-68000001D03*
%TD*%
%TO.C,D71*%
X294370000Y-29900001D03*
X291070000Y-29900001D03*
%TD*%
%TO.C,D85*%
X456570000Y-48950000D03*
X453270000Y-48950000D03*
%TD*%
D34*
%TO.C,R1*%
X448850000Y-25600000D03*
X450500000Y-25600000D03*
%TD*%
D35*
%TO.C,Q1*%
X445150000Y-66000000D03*
X443250000Y-66000000D03*
X444200000Y-64000000D03*
%TD*%
D15*
%TO.C,D101*%
X301513750Y-87050001D03*
X298213750Y-87050001D03*
%TD*%
%TO.C,D95*%
X400200000Y-84400000D03*
X396900000Y-84400000D03*
%TD*%
D27*
%TO.C,R4*%
X452425000Y-62006000D03*
X450775000Y-62006000D03*
%TD*%
D15*
%TO.C,D103*%
X338200000Y-125150001D03*
X334900000Y-125150001D03*
%TD*%
M02*
